<svg xmlns="http://www.w3.org/2000/svg" viewBox="0 0 110.24 154.31"><defs><style>.cls-1{fill:#f45741;}.cls-2{fill:#f7d1cd;}.cls-3{fill:#d83e2e;}</style></defs><g id="Layer_2" data-name="Layer 2"><g id="Layer_1-2" data-name="Layer 1"><path class="cls-1" d="M32.12,153.1c0,.84-3.33.51-4.3-.84C12.07,130.42,3.47,104.34.62,79.62-4.31,37,21.36,11.42,35,1a5.06,5.06,0,0,1,8.12,4V20.16a5.09,5.09,0,0,0,4.57,5A42.83,42.83,0,0,1,73.45,37.44c.62.62,1.21,1.25,1.79,1.9h0l0,.05a43.25,43.25,0,0,1,2.77,3.43l.11.15A170.2,170.2,0,0,0,91,56.4c6.73,6.35,13.13,7.65,16.95,7.74.12,0,1-.11,1.08-.08,1.1.27.87,1.77.1,2.7L99.62,78.31S17.87,74.44,32.12,153.1Z"/><path class="cls-2" d="M6.7,111.32a.5.5,0,0,1,0-.21C8,101.08,12.86,84,30.24,73.28,48.63,62,80,75.58,108.87,64.11a1,1,0,0,1,1.32,1.26c-2.1,6.39-10.19,25.95-32.36,26.94-.59,0-1.18.06-1.8.06-24.48,0-46.93,26.12-43.79,60.87-1.83,1-3.53,1.37-4.2.3C22.39,144.51,8.31,120.9,6.7,111.32Z"/><path class="cls-3" d="M79.75,92l.1-.15c-.59,0-1.19.06-1.8.06-25.7,0-52.34,23.6-45.88,61.36l-.08.05A328.49,328.49,0,0,1,66,134.88a3.53,3.53,0,0,0,1.63-4.7C64.61,124,60.63,109,79.75,92Z"/><path class="cls-2" d="M32.24,153.24c-1.83,1-3.3,1.68-4.2.3-5.8-8.93-19.73-32.64-21.34-42.22"/></g></g></svg>